# xmcd
#
# Track frame offsets: 
#        150
#        18137
#        33117
#        42727
#        60272
#        78252
#        88094
#        97899
#        117259
#        134489
#        147654
#        163204
#        182646
#        202981
#
# Disc length: 2783 seconds
#
# Revision: 1
# Processed by: cddbd v1.5.2PL0 Copyright (c) Steve Scherf et al.
# Submitted via: ExactAudioCopy v1.0b4
#
DISCID=b70add0e
DTITLE=CeDell Davis - Feel Like Doin' Something Wrong
DYEAR=1995
DGENRE=Blues
TTITLE0=I Don't Know Why
TTITLE1=Every Day Every Way
TTITLE2=She's Got The Devil In Her
TTITLE3=John Lee Hooker - Boogie Chillen No.2
TTITLE4=Baby, I Love You So
TTITLE5=If You Like Fat Women
TTITLE6=Guitar Boogie
TTITLE7=Falling Rain Blues
TTITLE8=Leroy Carr - In The Evening
TTITLE9=Sit Down On My Knee
TTITLE10=Got To Be Moving On
TTITLE11=Lowell Fulson - Reconsider Baby
TTITLE12=Traditional - Murder My Baby
TTITLE13=Steve Cropper - Al Jackson Jr. - Booker T. Jones - Lewie Steinbe
TTITLE13=rg - Green Onions
EXTD=
EXTT0=
EXTT1=
EXTT2=
EXTT3=
EXTT4=
EXTT5=
EXTT6=
EXTT7=
EXTT8=
EXTT9=
EXTT10=
EXTT11=
EXTT12=
EXTT13=
PLAYORDER=
